<mxfile host="app.diagrams.net" agent="Mozilla/5.0 (Macintosh; Intel Mac OS X 10_15_7) AppleWebKit/605.1.15 (KHTML, like Gecko) Version/18.4 Safari/605.1.15" version="27.0.3">
  <diagram name="Page-1" id="13e1069c-82ec-6db2-03f1-153e76fe0fe0">
    <mxGraphModel dx="1697" dy="312" grid="1" gridSize="10" guides="1" tooltips="1" connect="1" arrows="1" fold="1" page="1" pageScale="1" pageWidth="1100" pageHeight="850" background="none" math="0" shadow="0">
      <root>
        <mxCell id="0" />
        <mxCell id="1" parent="0" />
        <mxCell id="qZDjLsgcLk7GfbXQVHLW-34" value="sensor&lt;div&gt;readout&lt;/div&gt;" style="shape=umlFrame;whiteSpace=wrap;html=1;pointerEvents=0;width=60;height=30;" parent="1" vertex="1">
          <mxGeometry x="210" y="1240" width="1620" height="760" as="geometry" />
        </mxCell>
        <mxCell id="qZDjLsgcLk7GfbXQVHLW-36" style="edgeStyle=orthogonalEdgeStyle;rounded=0;orthogonalLoop=1;jettySize=auto;html=1;dashed=1;endArrow=none;endFill=0;" parent="1" source="qZDjLsgcLk7GfbXQVHLW-39" edge="1">
          <mxGeometry relative="1" as="geometry">
            <mxPoint x="530" y="1960" as="targetPoint" />
          </mxGeometry>
        </mxCell>
        <mxCell id="qZDjLsgcLk7GfbXQVHLW-35" value=":EventLoop" style="rounded=1;whiteSpace=wrap;html=1;" parent="1" vertex="1">
          <mxGeometry x="470" y="1300" width="120" height="60" as="geometry" />
        </mxCell>
        <mxCell id="qZDjLsgcLk7GfbXQVHLW-38" style="edgeStyle=orthogonalEdgeStyle;rounded=0;orthogonalLoop=1;jettySize=auto;html=1;endArrow=none;endFill=0;dashed=1;" parent="1" source="qZDjLsgcLk7GfbXQVHLW-41" edge="1">
          <mxGeometry relative="1" as="geometry">
            <mxPoint x="765" y="1970" as="targetPoint" />
          </mxGeometry>
        </mxCell>
        <mxCell id="qZDjLsgcLk7GfbXQVHLW-37" value=":AbstractSensorReader" style="rounded=1;whiteSpace=wrap;html=1;" parent="1" vertex="1">
          <mxGeometry x="690" y="1300" width="150" height="60" as="geometry" />
        </mxCell>
        <mxCell id="qZDjLsgcLk7GfbXQVHLW-40" value="" style="edgeStyle=orthogonalEdgeStyle;rounded=0;orthogonalLoop=1;jettySize=auto;html=1;dashed=1;endArrow=none;endFill=0;" parent="1" source="qZDjLsgcLk7GfbXQVHLW-35" target="qZDjLsgcLk7GfbXQVHLW-39" edge="1">
          <mxGeometry relative="1" as="geometry">
            <mxPoint x="530" y="1960" as="targetPoint" />
            <mxPoint x="530" y="1360" as="sourcePoint" />
          </mxGeometry>
        </mxCell>
        <mxCell id="qZDjLsgcLk7GfbXQVHLW-39" value="" style="html=1;points=[];perimeter=orthogonalPerimeter;rounded=0;shadow=0;comic=0;labelBackgroundColor=none;strokeWidth=1;fontFamily=Verdana;fontSize=12;align=center;" parent="1" vertex="1">
          <mxGeometry x="525" y="1380" width="10" height="350" as="geometry" />
        </mxCell>
        <mxCell id="qZDjLsgcLk7GfbXQVHLW-42" value="" style="edgeStyle=orthogonalEdgeStyle;rounded=0;orthogonalLoop=1;jettySize=auto;html=1;endArrow=none;endFill=0;dashed=1;" parent="1" source="qZDjLsgcLk7GfbXQVHLW-37" target="qZDjLsgcLk7GfbXQVHLW-41" edge="1">
          <mxGeometry relative="1" as="geometry">
            <mxPoint x="765" y="1970" as="targetPoint" />
            <mxPoint x="765" y="1360" as="sourcePoint" />
          </mxGeometry>
        </mxCell>
        <mxCell id="qZDjLsgcLk7GfbXQVHLW-41" value="" style="html=1;points=[];perimeter=orthogonalPerimeter;rounded=0;shadow=0;comic=0;labelBackgroundColor=none;strokeWidth=1;fontFamily=Verdana;fontSize=12;align=center;" parent="1" vertex="1">
          <mxGeometry x="760" y="1440" width="10" height="50" as="geometry" />
        </mxCell>
        <mxCell id="qZDjLsgcLk7GfbXQVHLW-43" value="checkValue()" style="text;html=1;align=center;verticalAlign=middle;whiteSpace=wrap;rounded=0;" parent="1" vertex="1">
          <mxGeometry x="605" y="1420" width="95" height="30" as="geometry" />
        </mxCell>
        <mxCell id="qZDjLsgcLk7GfbXQVHLW-45" style="edgeStyle=orthogonalEdgeStyle;rounded=0;orthogonalLoop=1;jettySize=auto;html=1;dashed=1;endArrow=none;endFill=0;" parent="1" source="qZDjLsgcLk7GfbXQVHLW-46" edge="1">
          <mxGeometry relative="1" as="geometry">
            <mxPoint x="1010" y="1970" as="targetPoint" />
          </mxGeometry>
        </mxCell>
        <mxCell id="qZDjLsgcLk7GfbXQVHLW-44" value=":EventManager" style="rounded=1;whiteSpace=wrap;html=1;" parent="1" vertex="1">
          <mxGeometry x="950" y="1300" width="120" height="60" as="geometry" />
        </mxCell>
        <mxCell id="qZDjLsgcLk7GfbXQVHLW-47" value="" style="edgeStyle=orthogonalEdgeStyle;rounded=0;orthogonalLoop=1;jettySize=auto;html=1;dashed=1;endArrow=none;endFill=0;" parent="1" source="qZDjLsgcLk7GfbXQVHLW-44" target="qZDjLsgcLk7GfbXQVHLW-46" edge="1">
          <mxGeometry relative="1" as="geometry">
            <mxPoint x="1010" y="1970" as="targetPoint" />
            <mxPoint x="1010" y="1360" as="sourcePoint" />
          </mxGeometry>
        </mxCell>
        <mxCell id="qZDjLsgcLk7GfbXQVHLW-46" value="" style="html=1;points=[];perimeter=orthogonalPerimeter;rounded=0;shadow=0;comic=0;labelBackgroundColor=none;strokeWidth=1;fontFamily=Verdana;fontSize=12;align=center;" parent="1" vertex="1">
          <mxGeometry x="1005" y="1460" width="10" height="50" as="geometry" />
        </mxCell>
        <mxCell id="qZDjLsgcLk7GfbXQVHLW-48" value="dispatch(new SensorEvent)" style="text;html=1;align=center;verticalAlign=middle;whiteSpace=wrap;rounded=0;" parent="1" vertex="1">
          <mxGeometry x="810" y="1432" width="160" height="30" as="geometry" />
        </mxCell>
        <mxCell id="qZDjLsgcLk7GfbXQVHLW-53" style="edgeStyle=orthogonalEdgeStyle;rounded=0;orthogonalLoop=1;jettySize=auto;html=1;endArrow=none;endFill=0;dashed=1;" parent="1" source="HggO6RGHoeWTr73UGcBF-16" edge="1">
          <mxGeometry relative="1" as="geometry">
            <mxPoint x="1230" y="1980" as="targetPoint" />
          </mxGeometry>
        </mxCell>
        <mxCell id="qZDjLsgcLk7GfbXQVHLW-49" value=":RoboController" style="rounded=1;whiteSpace=wrap;html=1;" parent="1" vertex="1">
          <mxGeometry x="1170" y="1300" width="120" height="60" as="geometry" />
        </mxCell>
        <mxCell id="qZDjLsgcLk7GfbXQVHLW-50" value="onEvent(event)" style="text;html=1;align=center;verticalAlign=middle;whiteSpace=wrap;rounded=0;" parent="1" vertex="1">
          <mxGeometry x="1060" y="1440" width="90" height="30" as="geometry" />
        </mxCell>
        <mxCell id="qZDjLsgcLk7GfbXQVHLW-54" style="edgeStyle=orthogonalEdgeStyle;rounded=0;orthogonalLoop=1;jettySize=auto;html=1;dashed=1;endArrow=none;endFill=0;" parent="1" source="HggO6RGHoeWTr73UGcBF-18" edge="1">
          <mxGeometry relative="1" as="geometry">
            <mxPoint x="1580" y="1980" as="targetPoint" />
          </mxGeometry>
        </mxCell>
        <mxCell id="qZDjLsgcLk7GfbXQVHLW-51" value=":RoboContext" style="rounded=1;whiteSpace=wrap;html=1;" parent="1" vertex="1">
          <mxGeometry x="1520" y="1300" width="120" height="60" as="geometry" />
        </mxCell>
        <mxCell id="qZDjLsgcLk7GfbXQVHLW-52" value="updateFromSensorEvent(event)" style="text;html=1;align=center;verticalAlign=middle;whiteSpace=wrap;rounded=0;" parent="1" vertex="1">
          <mxGeometry x="1300" y="1450" width="180" height="30" as="geometry" />
        </mxCell>
        <mxCell id="qZDjLsgcLk7GfbXQVHLW-55" value="" style="endArrow=classic;html=1;rounded=0;exitX=1;exitY=0.173;exitDx=0;exitDy=0;exitPerimeter=0;entryX=0.1;entryY=0.161;entryDx=0;entryDy=0;entryPerimeter=0;" parent="1" edge="1">
          <mxGeometry width="50" height="50" relative="1" as="geometry">
            <mxPoint x="536" y="1444.44" as="sourcePoint" />
            <mxPoint x="760" y="1449.9999999999998" as="targetPoint" />
          </mxGeometry>
        </mxCell>
        <mxCell id="qZDjLsgcLk7GfbXQVHLW-57" value="" style="edgeStyle=orthogonalEdgeStyle;rounded=0;orthogonalLoop=1;jettySize=auto;html=1;endArrow=none;endFill=0;dashed=1;" parent="1" source="qZDjLsgcLk7GfbXQVHLW-49" target="qZDjLsgcLk7GfbXQVHLW-56" edge="1">
          <mxGeometry relative="1" as="geometry">
            <mxPoint x="1230" y="1980" as="targetPoint" />
            <mxPoint x="1230" y="1360" as="sourcePoint" />
          </mxGeometry>
        </mxCell>
        <mxCell id="qZDjLsgcLk7GfbXQVHLW-56" value="" style="html=1;points=[];perimeter=orthogonalPerimeter;rounded=0;shadow=0;comic=0;labelBackgroundColor=none;strokeWidth=1;fontFamily=Verdana;fontSize=12;align=center;" parent="1" vertex="1">
          <mxGeometry x="1225" y="1460" width="10" height="40" as="geometry" />
        </mxCell>
        <mxCell id="qZDjLsgcLk7GfbXQVHLW-59" value="" style="edgeStyle=orthogonalEdgeStyle;rounded=0;orthogonalLoop=1;jettySize=auto;html=1;dashed=1;endArrow=none;endFill=0;" parent="1" source="qZDjLsgcLk7GfbXQVHLW-51" target="qZDjLsgcLk7GfbXQVHLW-58" edge="1">
          <mxGeometry relative="1" as="geometry">
            <mxPoint x="1580" y="1980" as="targetPoint" />
            <mxPoint x="1580" y="1360" as="sourcePoint" />
          </mxGeometry>
        </mxCell>
        <mxCell id="qZDjLsgcLk7GfbXQVHLW-58" value="" style="html=1;points=[];perimeter=orthogonalPerimeter;rounded=0;shadow=0;comic=0;labelBackgroundColor=none;strokeWidth=1;fontFamily=Verdana;fontSize=12;align=center;" parent="1" vertex="1">
          <mxGeometry x="1575" y="1470" width="10" height="160" as="geometry" />
        </mxCell>
        <mxCell id="qZDjLsgcLk7GfbXQVHLW-60" value="" style="endArrow=classic;html=1;rounded=0;entryX=0.3;entryY=0.111;entryDx=0;entryDy=0;entryPerimeter=0;" parent="1" edge="1">
          <mxGeometry width="50" height="50" relative="1" as="geometry">
            <mxPoint x="770" y="1462" as="sourcePoint" />
            <mxPoint x="1005" y="1461.8600000000001" as="targetPoint" />
          </mxGeometry>
        </mxCell>
        <mxCell id="qZDjLsgcLk7GfbXQVHLW-61" value="" style="endArrow=classic;html=1;rounded=0;exitX=0.833;exitY=0.167;exitDx=0;exitDy=0;exitPerimeter=0;" parent="1" source="qZDjLsgcLk7GfbXQVHLW-46" edge="1">
          <mxGeometry width="50" height="50" relative="1" as="geometry">
            <mxPoint x="1090" y="1560" as="sourcePoint" />
            <mxPoint x="1227" y="1468" as="targetPoint" />
          </mxGeometry>
        </mxCell>
        <mxCell id="qZDjLsgcLk7GfbXQVHLW-62" value="" style="endArrow=classic;html=1;rounded=0;exitX=0.917;exitY=0.206;exitDx=0;exitDy=0;exitPerimeter=0;entryX=-0.083;entryY=0.203;entryDx=0;entryDy=0;entryPerimeter=0;" parent="1" edge="1">
          <mxGeometry width="50" height="50" relative="1" as="geometry">
            <mxPoint x="1234.17" y="1478.48" as="sourcePoint" />
            <mxPoint x="1574.17" y="1476.66" as="targetPoint" />
            <Array as="points">
              <mxPoint x="1330" y="1477" />
            </Array>
          </mxGeometry>
        </mxCell>
        <mxCell id="qZDjLsgcLk7GfbXQVHLW-63" value="" style="html=1;points=[];perimeter=orthogonalPerimeter;rounded=0;shadow=0;comic=0;labelBackgroundColor=none;strokeWidth=1;fontFamily=Verdana;fontSize=12;align=center;" parent="1" vertex="1">
          <mxGeometry x="1580" y="1530" width="10" height="90" as="geometry" />
        </mxCell>
        <mxCell id="qZDjLsgcLk7GfbXQVHLW-64" value="" style="endArrow=classic;html=1;rounded=0;exitX=1.167;exitY=0.097;exitDx=0;exitDy=0;exitPerimeter=0;entryX=1;entryY=0.878;entryDx=0;entryDy=0;entryPerimeter=0;" parent="1" source="qZDjLsgcLk7GfbXQVHLW-63" target="qZDjLsgcLk7GfbXQVHLW-63" edge="1">
          <mxGeometry width="50" height="50" relative="1" as="geometry">
            <mxPoint x="1640" y="1570" as="sourcePoint" />
            <mxPoint x="1690" y="1520" as="targetPoint" />
            <Array as="points">
              <mxPoint x="1680" y="1540" />
              <mxPoint x="1680" y="1610" />
            </Array>
          </mxGeometry>
        </mxCell>
        <mxCell id="qZDjLsgcLk7GfbXQVHLW-65" value="lastLightSensorValue = event.getValue();" style="text;html=1;align=center;verticalAlign=middle;whiteSpace=wrap;rounded=0;" parent="1" vertex="1">
          <mxGeometry x="1670" y="1550" width="250" height="30" as="geometry" />
        </mxCell>
        <mxCell id="HggO6RGHoeWTr73UGcBF-1" value="loop" style="shape=umlFrame;whiteSpace=wrap;html=1;pointerEvents=0;" vertex="1" parent="1">
          <mxGeometry x="480" y="1400" width="1340" height="330" as="geometry" />
        </mxCell>
        <mxCell id="HggO6RGHoeWTr73UGcBF-2" value="[running]" style="text;html=1;align=center;verticalAlign=middle;whiteSpace=wrap;rounded=0;" vertex="1" parent="1">
          <mxGeometry x="475" y="1430" width="60" height="30" as="geometry" />
        </mxCell>
        <mxCell id="HggO6RGHoeWTr73UGcBF-3" value="break" style="shape=umlFrame;whiteSpace=wrap;html=1;pointerEvents=0;" vertex="1" parent="1">
          <mxGeometry x="490" y="1640" width="1150" height="80" as="geometry" />
        </mxCell>
        <mxCell id="HggO6RGHoeWTr73UGcBF-4" value="" style="endArrow=open;html=1;rounded=0;exitX=-0.124;exitY=0.334;exitDx=0;exitDy=0;exitPerimeter=0;entryX=0.9;entryY=0.634;entryDx=0;entryDy=0;entryPerimeter=0;endFill=0;dashed=1;" edge="1" parent="1" target="qZDjLsgcLk7GfbXQVHLW-39">
          <mxGeometry width="50" height="50" relative="1" as="geometry">
            <mxPoint x="1575.0000000000002" y="1609.43" as="sourcePoint" />
            <mxPoint x="536.1800000000001" y="1630" as="targetPoint" />
          </mxGeometry>
        </mxCell>
        <mxCell id="HggO6RGHoeWTr73UGcBF-5" value="" style="html=1;points=[];perimeter=orthogonalPerimeter;rounded=0;shadow=0;comic=0;labelBackgroundColor=none;strokeWidth=1;fontFamily=Verdana;fontSize=12;align=center;" vertex="1" parent="1">
          <mxGeometry x="530" y="1675" width="10" height="30" as="geometry" />
        </mxCell>
        <mxCell id="HggO6RGHoeWTr73UGcBF-9" value="" style="endArrow=classic;html=1;rounded=0;exitX=1.1;exitY=0.138;exitDx=0;exitDy=0;exitPerimeter=0;entryX=1.1;entryY=0.842;entryDx=0;entryDy=0;entryPerimeter=0;" edge="1" parent="1" source="HggO6RGHoeWTr73UGcBF-5" target="HggO6RGHoeWTr73UGcBF-5">
          <mxGeometry width="50" height="50" relative="1" as="geometry">
            <mxPoint x="563" y="1655" as="sourcePoint" />
            <mxPoint x="560" y="1705" as="targetPoint" />
            <Array as="points">
              <mxPoint x="570" y="1679" />
              <mxPoint x="570" y="1690" />
              <mxPoint x="570" y="1700" />
            </Array>
          </mxGeometry>
        </mxCell>
        <mxCell id="HggO6RGHoeWTr73UGcBF-10" value="System.exit()" style="text;html=1;align=center;verticalAlign=middle;whiteSpace=wrap;rounded=0;" vertex="1" parent="1">
          <mxGeometry x="580" y="1675" width="60" height="30" as="geometry" />
        </mxCell>
        <mxCell id="HggO6RGHoeWTr73UGcBF-12" style="edgeStyle=orthogonalEdgeStyle;rounded=0;orthogonalLoop=1;jettySize=auto;html=1;dashed=1;endArrow=none;startFill=0;" edge="1" parent="1" source="HggO6RGHoeWTr73UGcBF-13">
          <mxGeometry relative="1" as="geometry">
            <mxPoint x="350" y="1960" as="targetPoint" />
          </mxGeometry>
        </mxCell>
        <mxCell id="HggO6RGHoeWTr73UGcBF-11" value=":PIDAlgorithm" style="rounded=1;whiteSpace=wrap;html=1;" vertex="1" parent="1">
          <mxGeometry x="290" y="1300" width="120" height="60" as="geometry" />
        </mxCell>
        <mxCell id="HggO6RGHoeWTr73UGcBF-14" value="" style="edgeStyle=orthogonalEdgeStyle;rounded=0;orthogonalLoop=1;jettySize=auto;html=1;dashed=1;endArrow=none;startFill=0;" edge="1" parent="1" source="HggO6RGHoeWTr73UGcBF-11" target="HggO6RGHoeWTr73UGcBF-13">
          <mxGeometry relative="1" as="geometry">
            <mxPoint x="350" y="1960" as="targetPoint" />
            <mxPoint x="350" y="1360" as="sourcePoint" />
          </mxGeometry>
        </mxCell>
        <mxCell id="HggO6RGHoeWTr73UGcBF-13" value="" style="html=1;points=[];perimeter=orthogonalPerimeter;rounded=0;shadow=0;comic=0;labelBackgroundColor=none;strokeWidth=1;fontFamily=Verdana;fontSize=12;align=center;" vertex="1" parent="1">
          <mxGeometry x="345" y="1770" width="10" height="120" as="geometry" />
        </mxCell>
        <mxCell id="HggO6RGHoeWTr73UGcBF-15" value="" style="endArrow=classic;html=1;rounded=0;exitX=0.529;exitY=0.248;exitDx=0;exitDy=0;exitPerimeter=0;entryX=0.5;entryY=0.2;entryDx=0;entryDy=0;entryPerimeter=0;" edge="1" parent="1" source="HggO6RGHoeWTr73UGcBF-13">
          <mxGeometry width="50" height="50" relative="1" as="geometry">
            <mxPoint x="350.0000000000001" y="1801.1599999999996" as="sourcePoint" />
            <mxPoint x="1225" y="1799.9999999999998" as="targetPoint" />
            <Array as="points">
              <mxPoint x="406.86" y="1800" />
            </Array>
          </mxGeometry>
        </mxCell>
        <mxCell id="HggO6RGHoeWTr73UGcBF-17" value="" style="edgeStyle=orthogonalEdgeStyle;rounded=0;orthogonalLoop=1;jettySize=auto;html=1;endArrow=none;endFill=0;dashed=1;" edge="1" parent="1" source="qZDjLsgcLk7GfbXQVHLW-56" target="HggO6RGHoeWTr73UGcBF-16">
          <mxGeometry relative="1" as="geometry">
            <mxPoint x="1230" y="1980" as="targetPoint" />
            <mxPoint x="1230" y="1500" as="sourcePoint" />
          </mxGeometry>
        </mxCell>
        <mxCell id="HggO6RGHoeWTr73UGcBF-16" value="" style="html=1;points=[];perimeter=orthogonalPerimeter;rounded=0;shadow=0;comic=0;labelBackgroundColor=none;strokeWidth=1;fontFamily=Verdana;fontSize=12;align=center;" vertex="1" parent="1">
          <mxGeometry x="1225" y="1790" width="10" height="60" as="geometry" />
        </mxCell>
        <mxCell id="HggO6RGHoeWTr73UGcBF-19" value="" style="edgeStyle=orthogonalEdgeStyle;rounded=0;orthogonalLoop=1;jettySize=auto;html=1;dashed=1;endArrow=none;endFill=0;" edge="1" parent="1" source="qZDjLsgcLk7GfbXQVHLW-58" target="HggO6RGHoeWTr73UGcBF-18">
          <mxGeometry relative="1" as="geometry">
            <mxPoint x="1580" y="1980" as="targetPoint" />
            <mxPoint x="1580" y="1630" as="sourcePoint" />
          </mxGeometry>
        </mxCell>
        <mxCell id="HggO6RGHoeWTr73UGcBF-18" value="" style="html=1;points=[];perimeter=orthogonalPerimeter;rounded=0;shadow=0;comic=0;labelBackgroundColor=none;strokeWidth=1;fontFamily=Verdana;fontSize=12;align=center;" vertex="1" parent="1">
          <mxGeometry x="1575" y="1810" width="10" height="70" as="geometry" />
        </mxCell>
        <mxCell id="HggO6RGHoeWTr73UGcBF-20" value="" style="endArrow=classic;html=1;rounded=0;exitX=1.112;exitY=0.529;exitDx=0;exitDy=0;exitPerimeter=0;entryX=-0.006;entryY=0.118;entryDx=0;entryDy=0;entryPerimeter=0;" edge="1" parent="1" source="HggO6RGHoeWTr73UGcBF-16" target="HggO6RGHoeWTr73UGcBF-18">
          <mxGeometry width="50" height="50" relative="1" as="geometry">
            <mxPoint x="1280" y="1860" as="sourcePoint" />
            <mxPoint x="1330" y="1810" as="targetPoint" />
            <Array as="points">
              <mxPoint x="1400" y="1820" />
            </Array>
          </mxGeometry>
        </mxCell>
        <mxCell id="HggO6RGHoeWTr73UGcBF-21" value="getContext()" style="text;html=1;align=center;verticalAlign=middle;whiteSpace=wrap;rounded=0;" vertex="1" parent="1">
          <mxGeometry x="1150" y="1770" width="60" height="30" as="geometry" />
        </mxCell>
        <mxCell id="HggO6RGHoeWTr73UGcBF-22" value="getLastLightSensorValue()" style="text;html=1;align=center;verticalAlign=middle;whiteSpace=wrap;rounded=0;" vertex="1" parent="1">
          <mxGeometry x="1345" y="1790" width="90" height="30" as="geometry" />
        </mxCell>
        <mxCell id="HggO6RGHoeWTr73UGcBF-23" value="" style="endArrow=open;html=1;rounded=0;exitX=-0.367;exitY=0.876;exitDx=0;exitDy=0;exitPerimeter=0;entryX=0.8;entryY=0.844;entryDx=0;entryDy=0;entryPerimeter=0;startFill=0;endFill=0;dashed=1;" edge="1" parent="1" source="HggO6RGHoeWTr73UGcBF-18" target="HggO6RGHoeWTr73UGcBF-13">
          <mxGeometry width="50" height="50" relative="1" as="geometry">
            <mxPoint x="1340" y="1920" as="sourcePoint" />
            <mxPoint x="1390" y="1870" as="targetPoint" />
          </mxGeometry>
        </mxCell>
        <mxCell id="HggO6RGHoeWTr73UGcBF-24" value="return lastLightSensorValue" style="text;html=1;align=center;verticalAlign=middle;whiteSpace=wrap;rounded=0;" vertex="1" parent="1">
          <mxGeometry x="370" y="1840" width="160" height="30" as="geometry" />
        </mxCell>
      </root>
    </mxGraphModel>
  </diagram>
</mxfile>
